<svg width="901" height="901" viewBox="0 0 901 901" fill="none" xmlns="http://www.w3.org/2000/svg">
<g style="mix-blend-mode:soft-light">
<path fill-rule="evenodd" clip-rule="evenodd" d="M549.944 3V102.444H728.238L500.222 330.46V3H400.778V330.46L172.763 102.444H351.056V3H102.444C93.5363 3 84.9017 4.1713 76.6864 6.3683C42.4667 15.5195 15.5197 42.4663 6.36839 76.686C4.17134 84.9015 3 93.5362 3 102.444V748.833H351.056V649.389H102.444V172.762L400.778 471.095V748.833H500.222V471.096L798.556 172.763V649.389H549.944V748.833H898V102.444C898 93.5363 896.829 84.9017 894.632 76.6864C885.48 42.4667 858.534 15.5197 824.314 6.36839C816.099 4.17134 807.464 3 798.556 3H549.944ZM898 798.556H798.654L798.584 798.555L798.556 798.556H536.641C545.102 813.182 549.944 830.165 549.944 848.278C549.944 866.391 545.102 883.373 536.641 898H798.556C835.364 898 867.502 878.002 884.696 848.278C893.157 833.651 898 816.669 898 798.556ZM475.387 891.333C482.937 886.959 489.231 880.656 493.594 873.099C497.81 865.794 500.222 857.318 500.222 848.278C500.222 839.238 497.81 830.761 493.594 823.457C489.231 815.899 482.937 809.596 475.387 805.223C468.068 800.983 459.567 798.556 450.5 798.556C441.433 798.556 432.932 800.983 425.613 805.223C418.063 809.596 411.769 815.899 407.406 823.457C403.19 830.761 400.778 839.238 400.778 848.278C400.778 857.318 403.19 865.794 407.406 873.099C411.769 880.656 418.063 886.959 425.613 891.333C432.932 895.573 441.433 898 450.5 898C459.567 898 468.068 895.573 475.387 891.333ZM102.444 798.556L102.416 798.555L102.346 798.556H3C3 816.669 7.84266 833.651 16.3039 848.278C33.4983 878.002 65.6359 898 102.444 898H364.359C355.898 883.373 351.056 866.391 351.056 848.278C351.056 830.165 355.898 813.182 364.359 798.556H102.444Z" stroke="white" stroke-opacity="0.5" stroke-width="6" stroke-linejoin="round"/>
</g>
</svg>
